# xmcd
#
# Track frame offsets: 
#        150
#        32236
#        43576
#        68687
#        84319
#        109070
#        134974
#        154909
#        195807
#        214993
#        222838
#
# Disc length: 3432 seconds
#
# Revision: 0
# Processed by: cddbd v1.5.1PL2 Copyright (c) Steve Scherf et al.
# Submitted via: ExactAudioCopy v0.95b3
#
DISCID=9d0d660b
DTITLE=Drink Small - Blues Doctor: Live and Outrageous
DYEAR=2006
DGENRE=Blues
TTITLE0=Swing Low, Sweet Chariot
TTITLE1=Glory Hallelujah
TTITLE2=Charlestone Woman Blues
TTITLE3=I Really Don't Want To Know
TTITLE4=I Feel Good
TTITLE5=Little Red Rooster
TTITLE6=Thank You, Pretty Baby
TTITLE7=I Stand Accused
TTITLE8=Shout
TTITLE9=The Twist
TTITLE10=Stormy Monday Blues
EXTD=
EXTT0=
EXTT1=
EXTT2=
EXTT3=
EXTT4=
EXTT5=
EXTT6=
EXTT7=
EXTT8=
EXTT9=
EXTT10=
PLAYORDER=
